<?xml version="1.0" encoding="utf-8"?>
<!-- Generator: Adobe Illustrator 21.0.0, SVG Export Plug-In . SVG Version: 6.00 Build 0)  -->
<svg version="1.1" id="Слой_1" xmlns="http://www.w3.org/2000/svg" xmlns:xlink="http://www.w3.org/1999/xlink" x="0px" y="0px"
	 viewBox="0 0 1366 768" style="enable-background:new 0 0 1366 768;" xml:space="preserve">
<style type="text/css">
	.st0{fill:#333333;stroke:#333333;stroke-width:0.25;stroke-miterlimit:10;}
</style>
<path class="st0" d="M539.2,403.1c2.2-4,6.3-0.6,5.5,2.4c-1.6,6.4-7.1,3.5-7.1-0.8c0-3,2.8-4,2.4-4c-2.4,0.4-3.5,2.6-3.5,4.3
	c0,2,1.3,4.4,4.3,4.4c1.7,0,3.4-1,4.1-2.7C547.2,401.1,540,399,539.2,403.1L539.2,403.1z"/>
<path class="st0" d="M553.8,404.4h-4.5c0,0-0.1,0-0.1-0.1v-0.2c0-1.7,0-2,0-2.4s0.1-0.6,0.4-0.6c0.1,0,0.2,0,0.3,0
	c0,0,0.1,0,0.1-0.1s-0.1-0.1-0.2-0.1c-0.3,0-1,0-1.1,0s-0.7,0-1.2,0c-0.1,0-0.2,0-0.2,0.1c0,0,0,0.1,0.1,0.1s0.3,0,0.4,0
	c0.4,0.1,0.5,0.3,0.5,0.6c0.2,7.3-0.1,8.3-1.9,8.1c3,0.6,2.8-2.3,2.8-3.8v-1.2c0-0.1,0-0.1,0.1-0.1h4.5v1.3c0,1.7,0,2,0,2.4
	s-0.1,0.6-0.4,0.6c-0.1,0-0.2,0-0.3,0c0,0-0.1,0-0.1,0.1s0.1,0.1,0.2,0.1c0.3,0,1,0,1.1,0s0.7,0,1.2,0c0.1,0,0.2,0,0.2-0.1
	c0,0,0-0.1-0.1-0.1s-0.3,0-0.4,0c-0.4-0.1-0.5-0.3-0.5-0.6c-0.2-7.3,0.1-8.3,1.9-8.1c-3-0.6-2.8,2.3-2.8,3.8V404.4z"/>
<path class="st0" d="M531.6,406c0,1.1,0,1.9-0.1,2.4c0,0.3-0.1,0.6-0.3,0.6c-0.1,0-0.2,0-0.3,0s-0.1,0-0.1,0.1s0.1,0.1,0.2,0.1
	c0.3,0,1,0,1,0c0.1,0,0.7,0,1.3,0c0.1,0,0.2,0,0.2-0.1c0,0,0-0.1-0.1-0.1s-0.3,0-0.5,0c-0.3,0-0.4-0.3-0.4-0.6
	c-0.1-0.5-0.1-1.3-0.1-2.4v-4.5c0-0.1,0-0.2,0.1-0.2s0.3-0.1,0.5-0.1c0.3,0,0.9,0,1.5,0.6s0.6,1.3,0.6,1.7c0,1-0.9,1.6-1.8,1.3
	c-0.5-0.2-0.5-0.7-0.5-0.6c0,1.6,3.2,1.2,3.2-1.3c0-0.6-0.3-1.1-0.5-1.3c-0.2-0.2-0.5-0.6-2-0.6c-1.6,0.2-1.7,0-2.6,0
	c-0.1,0-0.2,0-0.2,0.1c0,0,0,0.1,0.1,0.1s0.3,0,0.4,0c0.4,0.1,0.4,0.3,0.5,0.6c0,0.4,0,0.7,0,2.4v1.8H531.6z"/>
<path class="st0" d="M523.4,406c0,1.1,0,1.9-0.1,2.4c0,0.3-0.1,0.6-0.3,0.6c-0.1,0-0.2,0-0.3,0s-0.1,0-0.1,0.1s0.1,0.1,0.2,0.1
	c0.3,0,1,0,1,0c0.1,0,0.7,0,1.3,0c0.1,0,0.2,0,0.2-0.1c0,0,0-0.1-0.1-0.1s-0.3,0-0.4,0c-0.3,0-0.4-0.3-0.4-0.6
	c-0.1-0.5-0.1-1.3-0.1-2.4v-1h0.1c0.9,1.1,5.5,6.7,7.8,6c0,0-0.4,0-0.5,0s-0.4,0-0.7-0.1c-0.5-0.2-0.7-0.4-1.6-1.3
	c-0.4-0.4-4-4.6-4.2-5c0.2-0.3,2.1-2.2,2.4-2.4c0.5-0.5,0.7-0.8,1.2-1c0.2-0.1,0.4-0.2,0.6-0.2c0.1,0,0.1,0,0.1-0.1s0-0.1-0.2-0.1
	c-0.3,0-1,0-1,0c-0.3,0-0.6,0-0.8,0c-0.1,0-0.1,0-0.1,0.1c0,0,0,0.1,0.1,0.1s0.1,0.1,0.1,0.2c0,0.2-0.3,0.5-0.6,0.8
	c-0.4,0.4-2.4,2.5-2.6,2.7l0,0V404c0-1.7,0-2,0-2.4s0.1-0.6,0.4-0.6c0.1,0,0.2,0,0.3,0c0,0,0.1,0,0.1-0.1s-0.1-0.1-0.2-0.1
	c-0.3,0-1,0-1.1,0s-0.7,0-1.2,0c-0.1,0-0.2,0-0.2,0.1c0,0,0,0.1,0.1,0.1s0.3,0,0.4,0c0.4,0.1,0.4,0.3,0.5,0.6c0,0.4,0,0.7,0,2.4v2
	H523.4z"/>
<path class="st0" d="M557.8,408.1c-0.2,0.6-0.4,1-0.9,1c-0.1,0-0.2,0-0.3,0s-0.1,0-0.1,0.1s0.1,0.1,0.2,0.1c0.5,0,1.1,0,1.2,0
	c0.1,0,0.6,0,0.9,0c0.1,0,0.2,0,0.2-0.1c0,0,0-0.1-0.1-0.1h-0.1c-0.2,0-0.4-0.1-0.4-0.3c0-0.2,0.1-0.5,0.2-0.7l0.7-2
	c0-0.1,0.1-0.1,0.1-0.1h2.4c0.1,0,0.1,0,0.1,0.1c0.5,1.2,1.6,5.9,4.9,4.8c-4.7,1.5-3.3-11.8-9.1-10.6c1.4,0,1.8,0,2.7,1.3
	L557.8,408.1z M559.3,405.6L559.3,405.6l0.9-3.1c0.1-0.2,0.1-0.2,0.2,0l1,3v0.1H559.3z"/>
</svg>
