<?xml version="1.0" encoding="utf-8"?>
<!-- Generator: Adobe Illustrator 21.0.0, SVG Export Plug-In . SVG Version: 6.00 Build 0)  -->
<svg version="1.1" id="Слой_1" xmlns="http://www.w3.org/2000/svg" xmlns:xlink="http://www.w3.org/1999/xlink" x="0px" y="0px"
	 viewBox="0 0 1366 768" style="enable-background:new 0 0 1366 768;" xml:space="preserve">
<style type="text/css">
	.st0{fill:#333333;stroke:#333333;stroke-width:0.5;stroke-miterlimit:10;}
	.st1{fill:#333333;stroke:#333333;stroke-linejoin:round;stroke-miterlimit:10;}
</style>
<path class="st0" d="M539.2,403.1c2.2-4,6.3-0.6,5.5,2.4c-1.6,6.4-7.1,3.5-7.1-0.8c0-3,2.8-4,2.4-4c-2.4,0.4-3.5,2.6-3.5,4.3
	c0,2,1.3,4.4,4.3,4.4c1.7,0,3.4-1,4.1-2.7C547.2,401.1,540,399,539.2,403.1L539.2,403.1z"/>
<path class="st0" d="M553.8,404.4h-4.5c0,0-0.1,0-0.1-0.1v-0.2c0-1.7,0-2,0-2.4s0.1-0.6,0.4-0.6c0.1,0,0.2,0,0.3,0
	c0,0,0.1,0,0.1-0.1s-0.1-0.1-0.2-0.1c-0.3,0-1,0-1.1,0s-0.7,0-1.2,0c-0.1,0-0.2,0-0.2,0.1c0,0,0,0.1,0.1,0.1s0.3,0,0.4,0
	c0.4,0.1,0.5,0.3,0.5,0.6c0.2,7.3-0.1,8.3-1.9,8.1c3,0.6,2.8-2.3,2.8-3.8v-1.2c0-0.1,0-0.1,0.1-0.1h4.5v1.3c0,1.7,0,2,0,2.4
	s-0.1,0.6-0.4,0.6c-0.1,0-0.2,0-0.3,0c0,0-0.1,0-0.1,0.1s0.1,0.1,0.2,0.1c0.3,0,1,0,1.1,0s0.7,0,1.2,0c0.1,0,0.2,0,0.2-0.1
	c0,0,0-0.1-0.1-0.1s-0.3,0-0.4,0c-0.4-0.1-0.5-0.3-0.5-0.6c-0.2-7.3,0.1-8.3,1.9-8.1c-3-0.6-2.8,2.3-2.8,3.8V404.4z"/>
<path class="st0" d="M531.6,406c0,1.1,0,1.9-0.1,2.4c0,0.3-0.1,0.6-0.3,0.6c-0.1,0-0.2,0-0.3,0s-0.1,0-0.1,0.1s0.1,0.1,0.2,0.1
	c0.3,0,1,0,1,0c0.1,0,0.7,0,1.3,0c0.1,0,0.2,0,0.2-0.1c0,0,0-0.1-0.1-0.1s-0.3,0-0.5,0c-0.3,0-0.4-0.3-0.4-0.6
	c-0.1-0.5-0.1-1.3-0.1-2.4v-4.5c0-0.1,0-0.2,0.1-0.2s0.3-0.1,0.5-0.1c0.3,0,0.9,0,1.5,0.6s0.6,1.3,0.6,1.7c0,1-0.9,1.6-1.8,1.3
	c-0.5-0.2-0.5-0.7-0.5-0.6c0,1.6,3.2,1.2,3.2-1.3c0-0.6-0.3-1.1-0.5-1.3c-0.2-0.2-0.5-0.6-2-0.6c-1.6,0.2-1.7,0-2.6,0
	c-0.1,0-0.2,0-0.2,0.1c0,0,0,0.1,0.1,0.1s0.3,0,0.4,0c0.4,0.1,0.4,0.3,0.5,0.6c0,0.4,0,0.7,0,2.4v1.8H531.6z"/>
<path class="st0" d="M523.4,406c0,1.1,0,1.9-0.1,2.4c0,0.3-0.1,0.6-0.3,0.6c-0.1,0-0.2,0-0.3,0s-0.1,0-0.1,0.1s0.1,0.1,0.2,0.1
	c0.3,0,1,0,1,0c0.1,0,0.7,0,1.3,0c0.1,0,0.2,0,0.2-0.1c0,0,0-0.1-0.1-0.1s-0.3,0-0.4,0c-0.3,0-0.4-0.3-0.4-0.6
	c-0.1-0.5-0.1-1.3-0.1-2.4v-1h0.1c0.9,1.1,5.5,6.7,7.8,6c0,0-0.4,0-0.5,0s-0.4,0-0.7-0.1c-0.5-0.2-0.7-0.4-1.6-1.3
	c-0.4-0.4-4-4.6-4.2-5c0.2-0.3,2.1-2.2,2.4-2.4c0.5-0.5,0.7-0.8,1.2-1c0.2-0.1,0.4-0.2,0.6-0.2c0.1,0,0.1,0,0.1-0.1s0-0.1-0.2-0.1
	c-0.3,0-1,0-1,0c-0.3,0-0.6,0-0.8,0c-0.1,0-0.1,0-0.1,0.1c0,0,0,0.1,0.1,0.1s0.1,0.1,0.1,0.2c0,0.2-0.3,0.5-0.6,0.8
	c-0.4,0.4-2.4,2.5-2.6,2.7l0,0V404c0-1.7,0-2,0-2.4s0.1-0.6,0.4-0.6c0.1,0,0.2,0,0.3,0c0,0,0.1,0,0.1-0.1s-0.1-0.1-0.2-0.1
	c-0.3,0-1,0-1.1,0s-0.7,0-1.2,0c-0.1,0-0.2,0-0.2,0.1c0,0,0,0.1,0.1,0.1s0.3,0,0.4,0c0.4,0.1,0.4,0.3,0.5,0.6c0,0.4,0,0.7,0,2.4v2
	H523.4z"/>
<path class="st0" d="M557.8,408.1c-0.2,0.6-0.4,1-0.9,1c-0.1,0-0.2,0-0.3,0s-0.1,0-0.1,0.1s0.1,0.1,0.2,0.1c0.5,0,1.1,0,1.2,0
	c0.1,0,0.6,0,0.9,0c0.1,0,0.2,0,0.2-0.1c0,0,0-0.1-0.1-0.1h-0.1c-0.2,0-0.4-0.1-0.4-0.3c0-0.2,0.1-0.5,0.2-0.7l0.7-2
	c0-0.1,0.1-0.1,0.1-0.1h2.4c0.1,0,0.1,0,0.1,0.1c0.5,1.2,1.6,5.9,4.9,4.8c-4.7,1.5-3.3-11.8-9.1-10.6c1.4,0,1.8,0,2.7,1.3
	L557.8,408.1z M559.3,405.6L559.3,405.6l0.9-3.1c0.1-0.2,0.1-0.2,0.2,0l1,3v0.1H559.3z"/>
<g>
	<path class="st1" d="M512.3,408c-0.1-0.2-0.2-0.6,0-0.7s0.3-0.2,0.6-0.3c0.7-0.3,1.2-0.3,1.9-0.6c0.8-0.3,1.2-0.4,2-0.9
		c0.4-0.2,2.3-1.1,2.4-1.4c0.1-0.4-0.1-1.7,0-1.7c0.4-0.1,0.6,1,0.6,0.6c0-0.5,0.6-1.1,0.9-1.5c0.1-0.1,0.1,1.2,0.1,1.2
		c0.1-0.4,1-0.5,1-0.6c0.2-0.1-0.5,1.3-0.4,1.3c0.4,0.2,1.9,0.6,0.4,0.8c-0.3,0-1.4,0.5-2.3,0.1C519.1,405,512.8,407.9,512.3,408
		L512.3,408z"/>
	<path class="st1" d="M500.9,407.9c0.1-0.2,0.2-0.6,0-0.7s-0.3-0.2-0.6-0.3c-0.7-0.3-1.2-0.3-1.9-0.6c-0.8-0.3-1.2-0.4-2-0.9
		c-0.4-0.2-2.3-1.1-2.4-1.4c-0.1-0.4,0.1-1.7,0-1.7c-0.4-0.1-0.6,1-0.6,0.6c0-0.5-0.6-1.1-0.9-1.5c-0.1-0.1-0.1,1.2-0.1,1.2
		c-0.1-0.4-1-0.5-1-0.6c-0.2-0.1,0.5,1.3,0.4,1.3c-0.4,0.2-1.9,0.6-0.4,0.8c0.3,0,1.4,0.5,2.3,0.1
		C494.2,404.9,500.5,407.8,500.9,407.9L500.9,407.9z"/>
	<path class="st1" d="M504.6,393.1c-0.4,0-0.9,0-1.3-0.1c-1.4-0.1-3-0.4-4.6-0.9c-1.7-0.5-3.5-1.2-5.4-2l0.4-1
		c6.7,3.1,12.1,3.7,16,1.8c4.9-2.3,6.4-8,7-10.5v-0.1l1,0.3v0.1c-0.3,1.3-0.9,3.4-2,5.6c-1.4,2.6-3.2,4.5-5.5,5.6
		C508.5,392.7,506.7,393.1,504.6,393.1z"/>
	<path class="st1" d="M533.5,383.5c-0.9-1.4-2.1-2.5-3.6-3.4c1-0.9,1.7-2,2.3-3.1c0.7-1.5,1.1-3.1,1.1-4.7c0-1.4-0.3-2.8-0.8-4.1
		c-0.5-1.3-1.3-2.4-2.2-3.4c-1-1-2.1-1.7-3.3-2.3c-1.2-0.5-2.4-0.8-3.7-0.8c0.5-0.7,0.9-1.6,1.2-2.4c0.5-1.2,0.7-2.5,0.7-3.8
		c0-1.6-0.3-3.1-0.9-4.5c-0.6-1.4-1.5-2.6-2.6-3.7s-2.4-1.9-3.8-2.5c-1.5-0.6-3.1-0.9-4.7-0.9c-0.9,0-1.9,0.1-2.8,0.3
		c-1.1-0.8-2.3-1.4-3.6-1.8l0,0l0,0c0.3,0.5,0.5,0.9,0.6,1.3c0.9,0.4,1.8,0.9,2.6,1.5l0.2,0.1l0.2-0.1c0.9-0.2,1.8-0.3,2.8-0.3
		c6,0,11,4.7,11,10.4c0,2.4-0.8,4.6-2.3,6.4l-0.8,1l1.2-0.1c0.2,0,0.5,0,0.7,0c5.2,0,9.4,4.3,9.4,9.6c0,3-1.3,5.7-3.6,7.5l-0.6,0.5
		l0.7,0.4c3.3,1.8,5.3,4.9,5.3,8.3c0,3.2-1.8,5.9-5,7.7c-4.4,2.4-10.5,2.5-14.3,0l-0.4-0.2l-0.3,0.3c-1.5,1.7-2.3,4.5-2.3,8.3
		c0,2.9,0.4,6,0.9,8.2h-12.2c1-3.5,1.4-6.1,1.3-8.5c-0.1-1.4-0.3-2.7-0.7-4.1c-0.4-1.3-0.9-2.7-1.7-4.4l-0.4-0.8l-0.5,0.7
		c-1,1.3-3,2.2-5.6,2.5s-5.5,0-8.1-0.9c-2.3-0.8-7.6-3.2-7.6-8.9c0-4.5,3.6-8.4,8.6-9.4l2.1-0.4l-2.1-0.6c-4.1-1.2-7-4.5-7.4-8.2
		l0,0c-0.4,0-0.8-0.1-1.1-0.2c0.1,0.9,0.3,1.8,0.6,2.6c0.4,1.1,1,2,1.7,2.9s1.6,1.7,2.6,2.3c0.5,0.3,1.1,0.7,1.7,0.9
		c-0.7,0.2-1.4,0.6-2.1,0.9c-1.1,0.6-2.1,1.4-3,2.3s-1.5,2-2,3.1c-0.5,1.2-0.7,2.4-0.7,3.7c0,1.2,0.2,2.4,0.7,3.5c0.4,1,1,2,1.8,2.8
		c1.4,1.5,3.4,2.8,5.8,3.6c1.4,0.5,2.8,0.8,4.3,0.9c1.5,0.2,2.9,0.2,4.2,0c2.5-0.3,4.5-1.1,5.7-2.2c2.5,5.6,2.6,9.3,0.5,16.2
		l-0.2,0.7h14.9l-0.1-0.6c-0.9-4.4-1.9-12.2,0.8-15.9c1,0.6,2,1,3.2,1.3c1.3,0.3,2.6,0.5,4,0.5c2.8,0,5.5-0.7,7.8-2
		c0.8-0.5,1.6-1,2.2-1.5c0.7-0.6,1.3-1.3,1.8-2c1.1-1.5,1.6-3.3,1.6-5.1C535.1,386.9,534.6,385.1,533.5,383.5z"/>
	<g>
		<path class="st1" d="M492.6,372.6c0.8-0.8,2.1-0.4,2.9,0.8c0.8,1.3,0.8,2.9,0,3.7c-0.8,0.8-2.1,0.4-2.9-0.8
			C491.8,375.1,491.8,373.4,492.6,372.6L492.6,372.6z"/>
		<path class="st1" d="M494.5,377.6c-0.1,0-0.1,0-0.2,0c-0.3,0-0.6-0.2-0.9-0.4c-0.3-0.2-0.6-0.5-0.8-0.9c-0.2-0.3-0.4-0.6-0.5-1
			c-0.1-0.3-0.2-0.7-0.2-1s0-0.7,0.1-1s0.3-0.6,0.5-0.8l0,0c0.2-0.2,0.3-0.3,0.6-0.4c0.2-0.1,0.4-0.1,0.6-0.1c0.3,0,0.6,0.2,0.9,0.4
			c0.3,0.2,0.6,0.5,0.8,0.9c0.2,0.3,0.4,0.6,0.5,1c0.1,0.3,0.2,0.7,0.2,1s0,0.7-0.1,1s-0.3,0.6-0.5,0.8c-0.2,0.2-0.3,0.3-0.6,0.4
			C494.9,377.6,494.7,377.6,494.5,377.6z M492.6,372.6c-0.4,0.4-0.6,1-0.6,1.7s0.2,1.4,0.6,2c0.5,0.7,1.1,1.2,1.7,1.2
			c0.5,0,0.9-0.1,1.2-0.4c0.4-0.4,0.6-1,0.6-1.7s-0.2-1.4-0.6-2c-0.5-0.7-1.1-1.2-1.7-1.2C493.3,372.1,492.9,372.3,492.6,372.6
			L492.6,372.6z"/>
	</g>
	<g>
		<path class="st1" d="M507.8,366.8c0.8-0.8,2.1-0.4,2.9,0.8c0.8,1.3,0.8,2.9,0,3.7c-0.8,0.8-2.1,0.4-2.9-0.8
			C507,369.3,507,367.6,507.8,366.8L507.8,366.8z"/>
		<path class="st1" d="M509.7,371.8c-0.1,0-0.1,0-0.2,0c-0.3,0-0.6-0.2-0.9-0.4c-0.3-0.2-0.6-0.5-0.8-0.9c-0.2-0.3-0.4-0.6-0.5-1
			c-0.1-0.3-0.2-0.7-0.2-1s0-0.7,0.1-1s0.3-0.6,0.5-0.8l0,0c0.2-0.2,0.3-0.3,0.6-0.4c0.2-0.1,0.4-0.1,0.6-0.1c0.3,0,0.6,0.2,0.9,0.4
			c0.3,0.2,0.6,0.5,0.8,0.9c0.2,0.3,0.4,0.6,0.5,1c0.1,0.3,0.2,0.7,0.2,1s0,0.7-0.1,1s-0.3,0.6-0.5,0.8c-0.2,0.2-0.3,0.3-0.6,0.4
			C510,371.7,509.9,371.8,509.7,371.8z M507.8,366.8c-0.4,0.4-0.6,1-0.6,1.7s0.2,1.4,0.6,2c0.5,0.7,1.1,1.2,1.7,1.2
			c0.5,0,0.9-0.1,1.2-0.4c0.4-0.4,0.6-1,0.6-1.7s-0.2-1.4-0.6-2c-0.5-0.7-1.1-1.2-1.7-1.2C508.5,366.3,508.1,366.5,507.8,366.8
			L507.8,366.8z"/>
	</g>
	<path class="st1" d="M478.3,371.4c-0.4,0-0.8-0.1-1.1-0.3l0,0c-0.2-0.1-0.3-0.3-0.5-0.4c-1.8-1.5-4.9-3.9-7.2-4.7l-5.6-1.8
		c-0.1,0.1-0.2,0.2-0.3,0.3c-0.4,0.3-0.9,0.5-1.4,0.4c-0.5,0-0.9-0.3-1.3-0.7c-0.7-0.8-0.5-2,0.2-2.6c0.4-0.3,0.9-0.5,1.4-0.4
		c0.5,0,0.9,0.3,1.3,0.7c0.1,0.1,0.2,0.3,0.3,0.4l9-1.5l-1.7-5.8l0,0c-0.5,0-1.1-0.2-1.4-0.7c-0.7-0.8-0.5-2,0.2-2.6
		c0.4-0.3,0.9-0.5,1.4-0.4c0.5,0,0.9,0.3,1.3,0.7c0.2,0.3,0.4,0.7,0.4,1l6.4,1.3l-0.6-11.8c-0.4-0.1-0.7-0.3-1-0.6
		c-0.7-0.8-0.5-2,0.2-2.6c0.4-0.3,0.9-0.5,1.4-0.4c0.5,0,0.9,0.3,1.3,0.7c0.3,0.4,0.4,0.8,0.4,1.3l10.4,3.6l-0.1-6.8
		c-0.4-0.1-0.7-0.3-0.9-0.6c-0.7-0.8-0.5-2,0.2-2.6c0.4-0.3,0.9-0.5,1.4-0.4c0.5,0,0.9,0.3,1.3,0.7c0.4,0.4,0.5,1,0.4,1.6l5.3,2.8
		l2.9-8.1c-0.1-0.1-0.2-0.2-0.3-0.3c-0.7-0.8-0.5-2,0.2-2.6c0.4-0.3,0.9-0.5,1.4-0.4c0.5,0,0.9,0.3,1.3,0.7c0.7,0.8,0.5,2-0.2,2.6
		l-0.1,0.1l0.6,5.5c0.3,2.4,2.1,5.9,3.2,8c0.1,0.2,0.2,0.4,0.3,0.6l0,0c0.2,0.5,0.4,0.8,0.5,1c0.1,0.3-0.1,0.7-0.7,1.5
		c-0.4,0.5-1.1,1.3-1.9,2.1c-1.6,1.7-3.9,4-6.4,6.3c-2.7,2.5-5.6,5-8.2,7.2c-3,2.5-5.7,4.5-7.9,5.9c-1.6,1-2.9,1.7-3.9,2.1
		C479.3,371.3,478.7,371.4,478.3,371.4z M477.8,370.3c0.1,0.1,0.4,0.2,1.4-0.1c1.6-0.5,4.1-2,7.3-4.4c2.8-2.1,6-4.7,9.5-7.8
		c3-2.7,6-5.4,8.3-7.8c1.1-1.1,2-2.1,2.6-2.8c0.7-0.8,0.9-1.2,1-1.3c-0.1-0.2-0.2-0.4-0.3-0.7l0,0c-0.1-0.2-0.2-0.4-0.3-0.6
		c-1.1-2.2-3-5.8-3.3-8.4l-0.6-5.6l-3.4,9.6l-7.2-3.7l0.1,8.2v0.8l-0.8-0.1H492l-11.9-4.1l0.2-0.5c0.1-0.3,0-0.6-0.1-0.8
		c-0.1-0.2-0.3-0.3-0.5-0.3s-0.4,0-0.6,0.2c-0.3,0.3-0.4,0.8-0.1,1.2c0.2,0.2,0.4,0.3,0.7,0.3h0.5l0.7,14.1l-8.6-1.8l2.3,7.8
		l-10,1.7l5.3,1.7c2.5,0.8,5.7,3.3,7.6,4.8C477.5,370,477.7,370.1,477.8,370.3L477.8,370.3z M462.4,362.3c-0.2,0-0.4,0.1-0.5,0.2
		c-0.3,0.3-0.4,0.8-0.1,1.2c0.1,0.2,0.3,0.3,0.5,0.3s0.4,0,0.6-0.2c0.1-0.1,0.2-0.2,0.2-0.3l0.1-0.2v-0.2c0-0.1-0.1-0.3-0.2-0.4
		C462.8,362.4,462.6,362.3,462.4,362.3L462.4,362.3z M471.4,352.4c-0.2,0-0.4,0.1-0.5,0.2c-0.3,0.3-0.4,0.8-0.1,1.2
		c0.2,0.3,0.5,0.4,0.8,0.3l0.5-0.1l0.1-0.5c0.1-0.2,0-0.5-0.2-0.7C471.8,352.5,471.6,352.4,471.4,352.4L471.4,352.4z M492.1,335
		c-0.2,0-0.4,0.1-0.5,0.2c-0.3,0.3-0.4,0.8-0.1,1.2c0.2,0.2,0.4,0.3,0.6,0.3h0.5l0.2-0.4c0.1-0.3,0.1-0.6-0.1-0.9
		C492.6,335.1,492.4,335,492.1,335C492.2,335,492.2,335,492.1,335z M503.3,328.4c-0.2,0-0.4,0.1-0.5,0.2c-0.3,0.3-0.4,0.8-0.1,1.2
		c0.1,0.1,0.2,0.2,0.3,0.2l0.3,0.1l0.3-0.1c0.1,0,0.1-0.1,0.2-0.1c0.3-0.3,0.4-0.8,0.1-1.2C503.8,328.6,503.6,328.5,503.3,328.4
		L503.3,328.4z"/>
</g>
</svg>
