<?xml version="1.0" encoding="iso-8859-1"?>
<!-- Generator: Adobe Illustrator 19.0.0, SVG Export Plug-In . SVG Version: 6.00 Build 0)  -->
<svg version="1.1" id="Capa_1" xmlns="http://www.w3.org/2000/svg" xmlns:xlink="http://www.w3.org/1999/xlink" x="0px" y="0px"
	 viewBox="0 0 512 512" style="enable-background:new 0 0 512 512;" xml:space="preserve">
<g>
	<g>
		<path d="M259.25,138.109c-63.393,0-114.966,51.573-114.966,114.966s51.573,114.966,114.966,114.966
			s114.966-51.573,114.966-114.966S322.642,138.109,259.25,138.109z M259.25,324.884c-39.594,0-71.807-32.213-71.807-71.807
			s32.213-71.807,71.807-71.807s71.807,32.213,71.807,71.807S298.845,324.884,259.25,324.884z"/>
	</g>
</g>
<g>
	<g>
		<path d="M259.25,211.381c-22.99,0-41.694,18.704-41.694,41.694c0,22.99,18.704,41.694,41.694,41.694
			c22.99,0,41.694-18.704,41.694-41.694C300.944,230.085,282.241,211.381,259.25,211.381z"/>
	</g>
</g>
<g>
	<g>
		<path d="M504.732,264.928c-2.596-10.569-5.281-21.497-6.656-33.018c-1.075-9.008,0.338-20.385,1.836-32.432
			c2.552-20.537,5.444-43.813-4.007-63.093c-12.709-25.921-29.594-49.507-50.188-70.101c-0.002-0.002-0.004-0.004-0.006-0.006
			c-20.591-20.59-44.175-37.474-70.096-50.183c-19.278-9.45-42.556-6.559-63.092-4.006c-12.045,1.497-23.423,2.911-32.433,1.835
			c-11.519-1.375-22.447-4.059-33.016-6.656c-24.65-6.057-50.141-12.319-80.235-0.932c-26.038,9.851-43.272,30.099-59.94,49.679
			c-6.506,7.645-13.236,15.549-20.394,22.708c-5.019,5.02-11.213,9.653-17.772,14.559c-11.87,8.88-24.145,18.061-32.062,31.438
			c-12.1,20.443-12.632,37.605-13.148,54.203c-0.248,7.969-0.503,16.211-2.064,25.264c-1.559,9.041-5.249,19.077-9.155,29.701
			C4.952,253.887-2.65,274.565,0.902,295.729c3.274,19.512,13.158,33.501,22.717,47.028c4.953,7.008,9.63,13.629,13.507,21.08
			c3.546,6.815,6.479,14.871,9.585,23.401c6.19,17,13.206,36.268,27.495,50.557c14.29,14.29,33.558,21.306,50.559,27.495
			c8.53,3.107,16.586,6.04,23.401,9.585c7.45,3.875,14.07,8.553,21.079,13.507c13.528,9.558,27.516,19.443,47.028,22.717
			c3.702,0.621,7.386,0.901,11.057,0.901c17.317,0,34.284-6.237,50.782-12.303c10.625-3.907,20.661-7.595,29.7-9.154
			c9.053-1.562,17.294-1.818,25.265-2.066c16.598-0.515,33.761-1.048,54.202-13.148c13.378-7.918,22.561-20.193,31.44-32.063
			c4.905-6.558,9.538-12.752,14.557-17.771c7.159-7.159,15.063-13.887,22.709-20.394c19.58-16.667,39.827-33.9,49.679-59.938
			C517.049,315.069,510.788,289.579,504.732,264.928z M259.25,450.217c-108.704,0-197.141-88.437-197.141-197.14
			S150.546,55.935,259.25,55.935s197.141,88.437,197.141,197.14S367.954,450.217,259.25,450.217z"/>
	</g>
</g>
<g>
	<g>
		<path d="M259.25,86.048c-92.099,0-167.028,74.928-167.028,167.027s74.928,167.027,167.028,167.027s167.028-74.928,167.028-167.027
			S351.35,86.048,259.25,86.048z M259.25,398.156c-79.997,0-145.079-65.082-145.079-145.079s65.082-145.079,145.079-145.079
			s145.079,65.082,145.079,145.079S339.246,398.156,259.25,398.156z"/>
	</g>
</g>
<g>
</g>
<g>
</g>
<g>
</g>
<g>
</g>
<g>
</g>
<g>
</g>
<g>
</g>
<g>
</g>
<g>
</g>
<g>
</g>
<g>
</g>
<g>
</g>
<g>
</g>
<g>
</g>
<g>
</g>
</svg>
